<svg width="29" height="26" viewBox="0 0 29 26" fill="none" xmlns="http://www.w3.org/2000/svg">
<path d="M14.2407 0C17.0399 0 19.3098 2.26919 19.31 5.06836L19.3032 5.33008C19.1999 7.36379 17.8976 9.08039 16.0893 9.78906V23.084C19.6416 22.4097 22.5957 19.942 23.9839 16.6113C23.2659 16.6386 22.612 16.1477 22.4604 15.4209C22.2915 14.61 22.8117 13.8156 23.6225 13.6465L26.5503 13.0361C27.3613 12.8672 28.1557 13.3882 28.3247 14.1992C28.4934 15.0101 27.9725 15.8047 27.1616 15.9736L26.6079 16.0879C25.1948 20.9521 21.1148 24.648 16.0893 25.4219V25.5742H14.1704C14.1558 25.5743 14.1411 25.5752 14.1264 25.5752L14.0591 25.5742H13.0893V25.5293C7.63552 25.0918 3.12852 21.2367 1.63622 16.0654L1.19481 15.9736C0.383942 15.8047 -0.136957 15.0101 0.031723 14.1992C0.200665 13.3883 0.99522 12.8673 1.80614 13.0361L4.73387 13.6465C5.5448 13.8155 6.06493 14.6099 5.89598 15.4209C5.73674 16.1842 5.02377 16.6889 4.26414 16.6045C5.77011 20.2246 9.12609 22.8273 13.0893 23.2178V10.0039C10.8451 9.48209 9.17235 7.47137 9.17235 5.06836C9.17264 2.26937 11.4417 0.000294251 14.2407 0ZM14.2407 3C13.0986 3.00029 12.1726 3.92622 12.1723 5.06836C12.1723 6.21074 13.0984 7.1374 14.2407 7.1377C15.3833 7.1377 16.31 6.21093 16.31 5.06836C16.3098 3.92604 15.3831 3 14.2407 3Z" fill="#4ED3FF"/>
</svg>
