<svg width="40" height="40" viewBox="0 0 40 40" fill="none" xmlns="http://www.w3.org/2000/svg" xmlns:xlink="http://www.w3.org/1999/xlink">
<circle cx="19.968" cy="19.968" r="19.968" fill="#93C4A6"/>
<path d="M20.9924 3.07202C25.1568 3.07228 28.5446 6.4975 28.6663 10.7703C32.6717 11.031 35.8401 14.361 35.8401 18.4324C35.8399 21.542 33.9901 24.2168 31.3323 25.4246C31.7662 26.3448 32.01 27.3729 32.01 28.4578C32.0099 32.3899 28.822 35.5776 24.8899 35.5779C22.7295 35.5779 20.7943 34.6147 19.4885 33.0955C18.3305 33.9107 16.9196 34.3913 15.3958 34.3914C11.4635 34.3914 8.27586 31.2035 8.27563 27.2712C8.27563 25.9462 8.63837 24.7058 9.2688 23.6433C6.25868 22.6039 4.09595 19.7469 4.09595 16.3835C4.09621 12.1423 7.53439 8.70403 11.7756 8.70386C12.398 8.70386 13.0028 8.77996 13.5823 8.91968C14.4696 5.5501 17.4505 3.07202 20.9924 3.07202ZM19.0989 18.7C18.8726 19.416 18.5454 20.0868 18.1321 20.6951C19.1664 21.126 20.0755 21.7956 20.7952 22.6326C21.0126 22.4794 21.2384 22.3372 21.4729 22.2087C20.9178 21.228 20.5717 20.1138 20.4963 18.9255C20.0172 18.894 19.5501 18.8182 19.0989 18.7Z" fill="#F4F7EC"/>
<g id="Repeat group 1_inner" data-figma-trr="r5u1-0f">
<rect x="12.226" y="5.63714" width="13.6896" height="13.6896" rx="6.84481" stroke="#EBCAE8" stroke-width="1.536"/>
</g>
<use xlink:href="#Repeat%20group%201_inner" transform="translate(32.2889 -4.25225) rotate(72)"/>
<use xlink:href="#Repeat%20group%201_inner" transform="translate(46.3108 25.1423) rotate(144)"/>
<use xlink:href="#Repeat%20group%201_inner" transform="translate(22.688 47.5613) rotate(-144)"/>
<use xlink:href="#Repeat%20group%201_inner" transform="translate(-5.93368 32.0226) rotate(-72)"/>
</svg>
